<svg xmlns="http://www.w3.org/2000/svg" width="64pt" height="64pt" viewBox="0 0 64 64" style="isolation:isolate"><defs><clipPath id="a"><rect width="64" height="64"/></clipPath></defs><g clip-path="url(#a)"><path fill="#231F20" d=" M 43.045 61.369 L 59.016 61.369 C 60.669 61.369 62.006 60.027 62 58.374 L 61.894 29.675 C 61.89 28.573 61.214 27.088 60.387 26.361 L 34.314 3.452 C 33.072 2.361 31.053 2.357 29.806 3.443 L 3.498 26.367 C 2.667 27.091 1.996 28.573 2 29.675 L 2.106 58.374 C 2.112 60.027 3.459 61.369 5.112 61.369 L 21.084 61.369 C 22.737 61.369 24.078 60.027 24.078 58.374 L 24.078 45.397 C 24.078 44.295 24.973 43.401 26.075 43.401 L 38.054 43.401 C 39.155 43.401 40.05 44.295 40.05 45.397 L 40.05 58.374 C 40.05 60.027 41.392 61.369 43.045 61.369 Z "/></g></svg>